<?xml version="1.0" encoding="UTF-8" standalone="no"?>
<!-- Created with Inkscape (http://www.inkscape.org/) -->
<svg
   xmlns:dc="http://purl.org/dc/elements/1.1/"
   xmlns:cc="http://creativecommons.org/ns#"
   xmlns:rdf="http://www.w3.org/1999/02/22-rdf-syntax-ns#"
   xmlns:svg="http://www.w3.org/2000/svg"
   xmlns="http://www.w3.org/2000/svg"
   xmlns:xlink="http://www.w3.org/1999/xlink"
   xmlns:sodipodi="http://sodipodi.sourceforge.net/DTD/sodipodi-0.dtd"
   xmlns:inkscape="http://www.inkscape.org/namespaces/inkscape"
   width="691.63782"
   height="372.50684"
   id="svg3233"
   sodipodi:version="0.32"
   inkscape:version="0.46"
   sodipodi:docname="Argus logo.svg"
   inkscape:output_extension="org.inkscape.output.svg.inkscape"
   version="1.0"
   inkscape:export-filename="C:\Documents and Settings\mbaltrusaitis\My Documents\My Pictures\realogic imgs\clients\argus1.png"
   inkscape:export-xdpi="90"
   inkscape:export-ydpi="90">
  <defs
     id="defs3235">
    <linearGradient
       id="linearGradient3797">
      <stop
         style="stop-color:#a0a0a0;stop-opacity:1;"
         offset="0"
         id="stop3799" />
      <stop
         style="stop-color:#c8c8c8;stop-opacity:0;"
         offset="1"
         id="stop3801" />
    </linearGradient>
    <linearGradient
       id="linearGradient3780">
      <stop
         style="stop-color:#ff5f39;stop-opacity:1;"
         offset="0"
         id="stop3782" />
      <stop
         style="stop-color:#c0321c;stop-opacity:1"
         offset="1"
         id="stop3784" />
    </linearGradient>
    <linearGradient
       id="linearGradient3770">
      <stop
         style="stop-color:#cb5531;stop-opacity:1;"
         offset="0"
         id="stop3772" />
      <stop
         id="stop3778"
         offset="1"
         style="stop-color:#cb5531;stop-opacity:1;" />
    </linearGradient>
    <inkscape:perspective
       sodipodi:type="inkscape:persp3d"
       inkscape:vp_x="0 : 526.18109 : 1"
       inkscape:vp_y="0 : 1000 : 0"
       inkscape:vp_z="744.09448 : 526.18109 : 1"
       inkscape:persp3d-origin="372.04724 : 350.78739 : 1"
       id="perspective3241" />
    <inkscape:perspective
       id="perspective3250"
       inkscape:persp3d-origin="372.04724 : 350.78739 : 1"
       inkscape:vp_z="744.09448 : 526.18109 : 1"
       inkscape:vp_y="0 : 1000 : 0"
       inkscape:vp_x="0 : 526.18109 : 1"
       sodipodi:type="inkscape:persp3d" />
    <linearGradient
       inkscape:collect="always"
       xlink:href="#linearGradient3797"
       id="linearGradient3807"
       gradientUnits="userSpaceOnUse"
       x1="244.46428"
       y1="272.09433"
       x2="276.42859"
       y2="309.95148"
       gradientTransform="matrix(4.6441927,0,0,4.6441927,-1167.1708,-833.58927)" />
  </defs>
  <sodipodi:namedview
     id="base"
     pagecolor="#ffffff"
     bordercolor="#666666"
     borderopacity="1.0"
     gridtolerance="10000"
     guidetolerance="10"
     objecttolerance="10"
     inkscape:pageopacity="0.0"
     inkscape:pageshadow="2"
     inkscape:zoom="0.7"
     inkscape:cx="363.02296"
     inkscape:cy="137.43488"
     inkscape:document-units="px"
     inkscape:current-layer="layer1"
     showgrid="false"
     inkscape:window-width="1280"
     inkscape:window-height="934"
     inkscape:window-x="0"
     inkscape:window-y="56" />
  <metadata
     id="metadata3238">
    <rdf:RDF>
      <cc:Work
         rdf:about="">
        <dc:format>image/svg+xml</dc:format>
        <dc:type
           rdf:resource="http://purl.org/dc/dcmitype/StillImage" />
      </cc:Work>
    </rdf:RDF>
  </metadata>
  <g
     inkscape:groupmode="layer"
     id="layer2"
     inkscape:label="shadow"
     transform="translate(15.849043,-257.48376)">
    <path
       style="opacity:0.98999999;fill:url(#linearGradient3807);fill-opacity:1;fill-rule:evenodd;stroke:none;stroke-width:1;stroke-linecap:round;stroke-linejoin:round;stroke-miterlimit:4;stroke-dashoffset:32.4;stroke-opacity:1"
       d="M -6.9519173,510.09868 L 67.686855,478.58453 L 164.71727,512.58661 L 34.514083,625.37413 L -6.9519173,510.09868 z"
       id="rect3794"
       sodipodi:nodetypes="ccccc" />
  </g>
  <g
     inkscape:label="Layer 1"
     inkscape:groupmode="layer"
     id="layer1"
     transform="translate(15.849043,-257.48376)">
    <path
       style="opacity:0.98999999;fill:#cd5835;fill-opacity:1;fill-rule:evenodd;stroke:none;stroke-width:0.75968307;stroke-linecap:round;stroke-linejoin:round;stroke-miterlimit:4;stroke-dashoffset:32.4;stroke-opacity:1"
       d="M 191.41317,562.4267 L 101.12662,517.32179 L 99.127808,471.6709 L 77.201274,461.59012 L 78.761119,345.34245 L 69.783894,481.58876 L -7.2776144,510.99723 L 34.73798,392.99934 L 80.272107,262.10022 L 135.87215,410.16062 L 191.41317,562.4267 z"
       id="path3258"
       sodipodi:nodetypes="ccccccccccc" />
    <path
       style="font-size:15.03211975px;font-style:normal;font-variant:normal;font-weight:normal;font-stretch:normal;text-align:start;line-height:100%;writing-mode:lr-tb;text-anchor:start;opacity:0.98999999;fill:#81725d;fill-opacity:1;stroke:none;stroke-width:1px;stroke-linecap:butt;stroke-linejoin:miter;stroke-opacity:1;font-family:Calibri;-inkscape-font-specification:Calibri"
       d="M 248.35241,393.19301 C 248.65999,394.03909 248.82347,394.72174 248.84274,395.24091 C 248.86193,395.76009 248.71767,396.15429 248.41009,396.42351 C 248.10236,396.69273 247.5928,396.86578 246.88136,396.94268 C 246.16983,397.01959 245.218,397.05809 244.02588,397.05809 C 242.83357,397.05809 241.88174,397.0292 241.17035,396.97153 C 240.45881,396.91384 239.92041,396.81771 239.5551,396.68312 C 239.18969,396.54848 238.92047,396.36583 238.74747,396.13506 C 238.57434,395.90433 238.41091,395.61588 238.25715,395.26975 L 231.85387,377.09828 L 200.81812,377.09828 L 194.70325,395.03902 C 194.58789,395.38516 194.43403,395.68318 194.24175,395.93318 C 194.04944,396.18313 193.77065,396.39467 193.40529,396.56771 C 193.03993,396.7408 192.52075,396.86578 191.84772,396.94268 C 191.17474,397.01959 190.29981,397.05809 189.22296,397.05809 C 188.10766,397.05809 187.19429,397.00998 186.48284,396.91384 C 185.77136,396.81771 185.2714,396.63505 184.98295,396.36583 C 184.69451,396.09661 184.55992,395.7024 184.57915,395.18323 C 184.59837,394.66405 184.76184,393.9814 185.06948,393.13533 L 210.10577,323.79525 C 210.25958,323.3723 210.46147,323.02617 210.71146,322.75691 C 210.96141,322.48778 211.32676,322.27623 211.80754,322.12232 C 212.28821,321.9686 212.90357,321.86281 213.65351,321.80508 C 214.40341,321.74744 215.35528,321.7186 216.50903,321.71851 C 217.73966,321.7186 218.75882,321.74744 219.56645,321.80508 C 220.37403,321.86281 221.02783,321.9686 221.52783,322.12232 C 222.02773,322.27623 222.41232,322.49739 222.68158,322.78574 C 222.95076,323.07424 223.16227,323.42999 223.31612,323.85294 L 248.35241,393.19301 z M 216.22058,331.98687 L 216.16291,331.98687 L 203.29867,369.19512 L 229.2579,369.19512 L 216.22058,331.98687 z M 349.71999,395.21208 C 349.71995,395.51975 349.66227,395.78897 349.54695,396.0197 C 349.4315,396.25046 349.18155,396.44274 348.79701,396.59655 C 348.41238,396.75042 347.87393,396.86578 347.18176,396.94268 C 346.48945,397.01959 345.56646,397.05809 344.41275,397.05809 C 343.41281,397.05809 342.59558,397.01959 341.96108,396.94268 C 341.32645,396.86578 340.81689,396.7408 340.43236,396.56771 C 340.04772,396.39467 339.74966,396.15429 339.53821,395.84666 C 339.32662,395.53898 339.14396,395.15439 338.99019,394.6929 L 332.12538,377.09828 C 331.3177,375.09849 330.48124,373.26208 329.61598,371.58915 C 328.75063,369.91627 327.72189,368.47407 326.52973,367.26263 C 325.33748,366.05118 323.93376,365.10897 322.31856,364.43594 C 320.70327,363.76294 318.76116,363.42643 316.49215,363.42643 L 309.8581,363.42643 L 309.8581,395.21208 C 309.8581,395.51975 309.77158,395.78897 309.59853,396.0197 C 309.42544,396.25046 309.15623,396.43312 308.79091,396.56771 C 308.42551,396.70235 307.92555,396.81771 307.29102,396.91384 C 306.65644,397.00998 305.85843,397.05809 304.89699,397.05809 C 303.93554,397.05809 303.13754,397.00998 302.503,396.91384 C 301.86842,396.81771 301.35885,396.70235 300.97427,396.56771 C 300.58968,396.43312 300.32046,396.25046 300.16664,396.0197 C 300.01283,395.78897 299.93588,395.51975 299.93592,395.21208 L 299.93592,326.10277 C 299.93588,324.60298 300.33007,323.55496 301.11847,322.95878 C 301.90687,322.36275 302.74334,322.06474 303.62787,322.06464 L 319.49188,322.06464 C 321.3763,322.06474 322.94348,322.11281 324.19337,322.20884 C 325.44327,322.30507 326.56814,322.41087 327.56808,322.52614 C 330.45241,323.02617 333.00025,323.81457 335.21168,324.89133 C 337.42296,325.96823 339.27855,327.33348 340.77849,328.98714 C 342.27828,330.64089 343.4032,332.53493 344.15319,334.66931 C 344.90304,336.80378 345.27801,339.15936 345.27811,341.73601 C 345.27801,344.23583 344.94154,346.476 344.26855,348.45657 C 343.59546,350.43723 342.62441,352.18706 341.35534,353.70609 C 340.08618,355.22525 338.56707,356.54244 336.79804,357.65769 C 335.02893,358.773 333.04832,359.71525 330.85626,360.48438 C 332.08687,361.02282 333.20218,361.70543 334.20212,362.53223 C 335.20202,363.35914 336.13462,364.34942 336.99997,365.50312 C 337.86523,366.65693 338.68247,367.98373 339.45168,369.48357 C 340.22076,370.98346 340.98994,372.67562 341.75916,374.56004 L 348.45088,391.00091 C 348.98924,392.38543 349.33536,393.35649 349.48928,393.91411 C 349.64304,394.47174 349.71995,394.9044 349.71999,395.21208 L 349.71999,395.21208 z M 334.77902,342.77436 C 334.77898,339.85162 334.12517,337.38068 332.81764,335.36157 C 331.51003,333.34255 329.31792,331.89078 326.24128,331.00615 C 325.27979,330.73702 324.19337,330.54475 322.98194,330.4293 C 321.7705,330.31399 320.18409,330.2563 318.22275,330.25625 L 309.8581,330.25625 L 309.8581,355.40785 L 319.54955,355.40785 C 322.1647,355.4079 324.4241,355.09066 326.32781,354.45603 C 328.23145,353.82154 329.81786,352.937 331.08703,351.80243 C 332.3561,350.66794 333.2887,349.33154 333.88483,347.79315 C 334.48092,346.25489 334.77898,344.58196 334.77902,342.77436 L 334.77902,342.77436 z M 460.03253,332.21759 C 460.03249,332.94835 459.99403,333.59255 459.91717,334.15014 C 459.84017,334.70785 459.72481,335.16934 459.57104,335.53461 C 459.41713,335.90002 459.22486,336.15962 458.99418,336.3134 C 458.76336,336.4673 458.51337,336.54421 458.24424,336.54417 C 457.7827,336.54421 457.01353,336.17886 455.93678,335.44809 C 454.85988,334.71747 453.41767,333.90984 451.6102,333.02522 C 449.80263,332.14078 447.63936,331.33315 445.1204,330.60234 C 442.60135,329.87172 439.61122,329.50636 436.15,329.50631 C 432.03497,329.50636 428.34297,330.2563 425.07407,331.75609 C 421.80511,333.25603 419.03611,335.33278 416.7671,337.98633 C 414.49807,340.64002 412.7578,343.79357 411.54641,347.44706 C 410.33498,351.1006 409.72924,355.06182 409.72929,359.33062 C 409.72924,364.09946 410.39266,368.32986 411.71946,372.02181 C 413.04625,375.7138 414.88262,378.82894 417.22859,381.36713 C 419.57455,383.90541 422.37235,385.82829 425.62208,387.13587 C 428.87177,388.44344 432.43879,389.09725 436.32309,389.09725 C 438.63051,389.09725 440.96687,388.81841 443.3321,388.26078 C 445.69721,387.70311 445.55324,389.35895 445.39251,386.19119 L 444.87942,356.45313 C 449.06671,356.16727 452.13165,355.69622 454.0235,355.72297 C 456.57842,355.7591 456.84304,355.85793 458.76471,355.93572 C 458.73703,357.79363 458.61322,358.95867 458.61331,359.65088 L 458.68664,387.9075 C 458.68655,388.90739 458.70267,392.15512 458.07589,392.66585 C 457.38144,393.2316 456.66906,393.23439 455.51717,393.70044 C 454.36123,394.1681 454.59065,394.03909 452.82163,394.6929 C 451.05252,395.3467 449.22573,395.90433 447.34135,396.36583 C 445.45687,396.82732 443.55317,397.17346 441.63034,397.40417 C 439.70736,397.63495 437.80366,397.7503 435.91928,397.7503 C 430.1505,397.7503 424.99711,396.85616 420.45909,395.06787 C 415.92101,393.27957 412.08482,390.73173 408.9505,387.42432 C 405.81613,384.11691 403.4221,380.15574 401.76844,375.54071 C 400.11474,370.92577 399.28788,365.77239 399.28788,360.08056 C 399.28788,354.15801 400.18203,348.79313 401.97033,343.98579 C 403.75862,339.17858 406.27762,335.08278 409.52735,331.69842 C 412.77704,328.31414 416.68057,325.68938 421.23787,323.82409 C 425.79512,321.95899 430.84276,321.02634 436.38078,321.02629 C 439.22664,321.02634 441.89947,321.27634 444.3993,321.77619 C 446.89904,322.27623 449.11998,322.86275 451.06218,323.53569 C 453.00424,324.20877 454.63872,324.93949 455.96561,325.7278 C 457.29232,326.51624 458.20574,327.16044 458.70573,327.66029 C 459.20563,328.16033 459.55177,328.73718 459.74413,329.39095 C 459.93635,330.04481 460.03249,330.98702 460.03253,332.21759 L 460.03253,332.21759 z M 567.46153,369.13744 C 567.46149,373.67551 566.79806,377.72325 565.47136,381.28061 C 564.14447,384.83801 562.25042,387.84736 559.78914,390.30864 C 557.32777,392.76996 554.32804,394.63522 550.78995,395.90433 C 547.25173,397.17346 543.23287,397.80799 538.7333,397.80799 C 534.61827,397.80799 530.86859,397.21191 527.48428,396.0197 C 524.09996,394.82749 521.19637,393.06803 518.77354,390.74134 C 516.35066,388.4146 514.48541,385.50139 513.17785,382.00171 C 511.87027,378.50204 511.21646,374.46391 511.2165,369.88738 L 511.2165,323.56453 C 511.21646,323.25695 511.29341,322.98772 511.44723,322.75691 C 511.60104,322.52623 511.87027,322.34352 512.25485,322.20884 C 512.63944,322.07435 513.13938,321.95899 513.75474,321.86276 C 514.37005,321.76667 515.17768,321.7186 516.17757,321.71851 C 517.10056,321.7186 517.88896,321.76667 518.54276,321.86276 C 519.19653,321.95899 519.70609,322.07435 520.0715,322.20884 C 520.4368,322.34352 520.69641,322.52623 520.85028,322.75691 C 521.00409,322.98772 521.081,323.25695 521.081,323.56453 L 521.081,368.67594 C 521.081,372.13721 521.50404,375.15617 522.35012,377.73287 C 523.1962,380.30956 524.41726,382.45359 526.01327,384.16498 C 527.60925,385.87636 529.53218,387.16471 531.78201,388.03001 C 534.03176,388.89532 536.56038,389.32798 539.36788,389.32798 C 542.25221,389.32798 544.81928,388.90494 547.06912,388.05885 C 549.31885,387.21278 551.22256,385.94366 552.78017,384.2515 C 554.33764,382.55934 555.52986,380.46337 556.35676,377.96359 C 557.18356,375.46385 557.59699,372.54103 557.59703,369.19512 L 557.59703,323.56453 C 557.59699,323.25695 557.6739,322.98772 557.82781,322.75691 C 557.98157,322.52623 558.25075,322.34352 558.63538,322.20884 C 559.01992,322.07435 559.52949,321.95899 560.16411,321.86276 C 560.7986,321.76667 561.59661,321.7186 562.55815,321.71851 C 563.48109,321.7186 564.25982,321.76667 564.89445,321.86276 C 565.52895,321.95899 566.02894,322.07435 566.39434,322.20884 C 566.75961,322.34352 567.02884,322.52623 567.20197,322.75691 C 567.37497,322.98772 567.46149,323.25695 567.46153,323.56453 L 567.46153,369.13744 z M 667.21735,375.77149 C 667.21731,379.27121 666.57312,382.38629 665.28481,385.11681 C 663.99642,387.84736 662.20813,390.16444 659.91989,392.06814 C 657.6316,393.97179 654.93955,395.40439 651.84369,396.36583 C 648.74777,397.32727 645.41152,397.80799 641.83494,397.80799 C 639.33515,397.80799 637.01802,397.59649 634.88365,397.17346 C 632.74918,396.75042 630.84552,396.23124 629.17259,395.61588 C 627.49966,395.00057 626.09596,394.36599 624.96142,393.71223 C 623.8269,393.05842 623.03849,392.5008 622.59622,392.0393 C 622.15397,391.5778 621.8271,390.99129 621.61556,390.2798 C 621.40406,389.56836 621.29827,388.61653 621.29827,387.42432 C 621.29827,386.57824 621.33673,385.87636 621.41368,385.31873 C 621.49059,384.76111 621.60594,384.30918 621.75976,383.96305 C 621.91362,383.61697 622.1059,383.37658 622.33666,383.24199 C 622.56739,383.1074 622.83662,383.04006 623.1443,383.04006 C 623.68269,383.04006 624.44225,383.36697 625.42292,384.02077 C 626.40359,384.67454 627.66309,385.38602 629.20143,386.15519 C 630.73978,386.92438 632.59536,387.64543 634.76824,388.31846 C 636.94112,388.9915 639.45052,389.32798 642.29643,389.32798 C 644.45008,389.32798 646.42108,389.03957 648.20938,388.46267 C 649.99766,387.88581 651.53601,387.06857 652.82435,386.01095 C 654.1127,384.95338 655.10298,383.65542 655.79524,382.11708 C 656.48746,380.57877 656.83359,378.82894 656.83363,376.86756 C 656.83359,374.75236 656.35287,372.94484 655.39143,371.44495 C 654.42994,369.94511 653.16082,368.62792 651.58407,367.49335 C 650.00728,366.35886 648.20938,365.32052 646.19035,364.37825 C 644.17125,363.43604 642.10412,362.4746 639.98896,361.49388 C 637.87371,360.51322 635.81625,359.4268 633.81641,358.23454 C 631.81658,357.04238 630.02828,355.63868 628.45149,354.02337 C 626.87469,352.40817 625.59596,350.51413 624.61529,348.34121 C 623.63462,346.16837 623.1443,343.5628 623.1443,340.52457 C 623.1443,337.40952 623.71153,334.6309 624.84606,332.18875 C 625.98055,329.74674 627.55734,327.69884 629.57641,326.04508 C 631.59547,324.39143 633.99907,323.13192 636.78731,322.26657 C 639.57549,321.40131 642.58484,320.96866 645.81538,320.96862 C 647.46904,320.96866 649.13236,321.11291 650.80534,321.40127 C 652.47822,321.68977 654.05501,322.07435 655.53568,322.55498 C 657.01629,323.03579 658.33348,323.57419 659.48724,324.17022 C 660.64095,324.7664 661.4005,325.24712 661.7659,325.61243 C 662.13122,325.97784 662.37156,326.26629 662.48697,326.47774 C 662.60233,326.68933 662.69846,326.95851 662.77542,327.28536 C 662.85227,327.61232 662.90996,328.00651 662.94846,328.46792 C 662.98691,328.9295 663.00614,329.52558 663.00618,330.25625 C 663.00614,330.94857 662.9773,331.56388 662.91962,332.10223 C 662.86189,332.64072 662.77537,333.0926 662.66006,333.45787 C 662.54464,333.82327 662.38117,334.0925 662.16972,334.26549 C 661.95813,334.43863 661.7178,334.52516 661.44862,334.52511 C 661.02553,334.52516 660.3621,334.25593 659.45839,333.71748 C 658.55459,333.17913 657.44894,332.57343 656.14138,331.90035 C 654.83375,331.22735 653.28584,330.61205 651.49755,330.05433 C 649.70922,329.49675 647.69981,329.21795 645.46925,329.21786 C 643.39246,329.21795 641.58494,329.49675 640.04665,330.05433 C 638.50831,330.61205 637.23918,331.35237 636.23929,332.27527 C 635.23935,333.19835 634.4894,334.29443 633.98951,335.56346 C 633.48951,336.83267 633.23951,338.17869 633.23956,339.60157 C 633.23951,341.67837 633.72028,343.46666 634.68172,344.9665 C 635.64316,346.46639 636.9219,347.79319 638.51791,348.9469 C 640.11394,350.10071 641.93107,351.15828 643.96936,352.11972 C 646.00765,353.08121 648.08435,354.05227 650.19959,355.03293 C 652.31474,356.01365 654.39149,357.09045 656.42983,358.26339 C 658.46807,359.43641 660.2852,360.8209 661.88127,362.41687 C 663.47725,364.01294 664.76559,365.89737 665.74631,368.07025 C 666.72693,370.24312 667.21731,372.81021 667.21735,375.77149 L 667.21735,375.77149 z M 262.04061,458.1055 C 262.04056,459.89397 261.71139,461.48586 261.05302,462.88121 C 260.39461,464.2766 259.48078,465.46069 258.31142,466.4335 C 257.14205,467.40638 255.76631,468.13844 254.18426,468.62979 C 252.60218,469.12111 250.89724,469.36678 249.06952,469.36678 C 247.79204,469.36678 246.60795,469.25866 245.51723,469.04247 C 244.42644,468.82629 243.45362,468.56096 242.59872,468.24655 C 241.74382,467.9321 241.02647,467.60779 240.4467,467.27369 C 239.86691,466.93958 239.46403,466.65461 239.23805,466.41879 C 239.01201,466.18295 238.84496,465.88327 238.73688,465.51967 C 238.62877,465.15608 238.57475,464.66964 238.57475,464.06042 C 238.57475,463.62805 238.5944,463.26937 238.6337,462.98441 C 238.67299,462.69944 238.73197,462.46853 238.81059,462.29163 C 238.88917,462.11473 238.98744,461.99194 239.10536,461.92311 C 239.22327,461.85434 239.36088,461.81997 239.51809,461.81997 C 239.79321,461.81997 240.18137,461.98701 240.68252,462.32112 C 241.18368,462.65522 241.82732,463.01882 242.61344,463.41185 C 243.39957,463.80494 244.34787,464.17342 245.45824,464.51736 C 246.56867,464.86126 247.85102,465.03323 249.30535,465.03323 C 250.40593,465.03323 251.41316,464.88583 252.32705,464.59106 C 253.24088,464.29625 254.02701,463.87865 254.68542,463.33815 C 255.34377,462.79771 255.84985,462.13443 256.2036,461.34826 C 256.55735,460.56218 256.73424,459.66794 256.73424,458.66563 C 256.73424,457.58469 256.48857,456.66101 255.99726,455.89453 C 255.5059,455.12806 254.85735,454.45493 254.05163,453.87514 C 253.24581,453.29541 252.327,452.76477 251.29525,452.28325 C 250.26345,451.80179 249.20708,451.31044 248.12619,450.80929 C 247.04526,450.30812 245.99381,449.75291 244.97186,449.14364 C 243.94985,448.53441 243.03602,447.81708 242.23025,446.99166 C 241.42444,446.16625 240.77099,445.1983 240.26984,444.08788 C 239.76869,442.9775 239.51809,441.64601 239.51809,440.09336 C 239.51809,438.50152 239.80798,437.08156 240.38775,435.83357 C 240.96749,434.58563 241.77331,433.53911 242.80506,432.69396 C 243.83686,431.8489 245.0652,431.20526 246.49004,430.76304 C 247.91488,430.32087 249.45276,430.09981 251.10363,430.09976 C 251.94868,430.09981 252.79871,430.17351 253.65361,430.32087 C 254.50851,430.46827 255.31428,430.66482 256.07096,430.91045 C 256.82759,431.15613 257.50072,431.43129 258.09031,431.73586 C 258.67988,432.04052 259.06805,432.2862 259.25479,432.47285 C 259.44144,432.65959 259.56428,432.807 259.62326,432.91507 C 259.6822,433.02319 259.73133,433.16075 259.77067,433.32779 C 259.80995,433.49485 259.83944,433.69632 259.85909,433.9321 C 259.87874,434.16798 259.88858,434.47259 259.88858,434.84599 C 259.88858,435.19978 259.87381,435.51423 259.84437,435.78936 C 259.81488,436.06453 259.77067,436.29544 259.71173,436.48213 C 259.65275,436.66883 259.5692,436.80644 259.46113,436.89481 C 259.35302,436.98329 259.23018,437.0275 259.09262,437.0275 C 258.87643,437.0275 258.53741,436.88994 258.07558,436.61477 C 257.61372,436.33965 257.0487,436.03011 256.3805,435.68616 C 255.71229,435.34226 254.92124,435.02781 254.00736,434.74279 C 253.09348,434.45787 252.0666,434.31538 250.92673,434.31533 C 249.86549,434.31538 248.94176,434.45787 248.15564,434.74279 C 247.36951,435.02781 246.72095,435.40612 246.21,435.87778 C 245.699,436.34949 245.31576,436.90959 245.06028,437.55815 C 244.8048,438.20671 244.67704,438.89456 244.67704,439.6217 C 244.67704,440.68299 244.92271,441.59688 245.41403,442.36331 C 245.90534,443.12983 246.55882,443.80783 247.37443,444.39742 C 248.19004,444.98704 249.11865,445.52749 250.16026,446.0188 C 251.2019,446.51015 252.26314,447.00638 253.34408,447.50754 C 254.42502,448.0087 255.48626,448.55899 256.52791,449.15841 C 257.56951,449.75784 258.49811,450.46538 259.31373,451.28095 C 260.12934,452.09656 260.7877,453.05958 261.28886,454.16996 C 261.79001,455.28039 262.04056,456.59223 262.04061,458.1055 L 262.04061,458.1055 z M 319.98457,449.29105 C 319.98453,452.3766 319.62094,455.15755 318.8938,457.63383 C 318.16661,460.11012 317.08075,462.21793 315.63631,463.95722 C 314.19173,465.69652 312.37873,467.03293 310.19727,467.96646 C 308.01575,468.9 305.47069,469.36678 302.56202,469.36678 C 299.69266,469.36678 297.21145,468.93933 295.11841,468.08438 C 293.02532,467.22947 291.29586,465.98641 289.92996,464.35523 C 288.56406,462.724 287.54702,460.69974 286.87883,458.28239 C 286.21062,455.86504 285.87651,453.08415 285.87651,449.93961 C 285.87651,446.93268 286.24006,444.20092 286.96725,441.74423 C 287.69444,439.28765 288.78517,437.19947 290.2395,435.47983 C 291.69383,433.76017 293.51175,432.4336 295.69327,431.50003 C 297.87473,430.56654 300.4198,430.09981 303.3285,430.09976 C 306.13889,430.09981 308.58569,430.52234 310.66898,431.36739 C 312.75217,432.2125 314.48655,433.44576 315.87215,435.0671 C 317.25764,436.68852 318.28945,438.69314 318.96749,441.08095 C 319.6455,443.46886 319.98453,446.20554 319.98457,449.29105 L 319.98457,449.29105 z M 314.64872,449.64479 C 314.64868,447.48297 314.45706,445.47348 314.07387,443.61621 C 313.69058,441.75901 313.05187,440.14747 312.15767,438.78152 C 311.26343,437.41567 310.0695,436.34949 308.57589,435.58298 C 307.08222,434.81654 305.23485,434.43331 303.0337,434.43326 C 300.83253,434.43331 298.98516,434.84603 297.4915,435.67145 C 295.99788,436.4969 294.78426,437.59749 293.85078,438.97314 C 292.91724,440.34889 292.24904,441.95554 291.84616,443.79307 C 291.44323,445.63068 291.24181,447.5616 291.24181,449.58586 C 291.24181,451.82632 291.4285,453.88991 291.80194,455.77662 C 292.17534,457.66333 292.80421,459.28962 293.68865,460.65548 C 294.57299,462.02138 295.75713,463.08268 297.24094,463.83931 C 298.72471,464.59599 300.58685,464.9743 302.82735,464.9743 C 305.04816,464.9743 306.91516,464.56157 308.42848,463.73611 C 309.94174,462.9107 311.16024,461.7954 312.08397,460.39021 C 313.00765,458.98501 313.66602,457.35871 314.05914,455.51129 C 314.45218,453.66392 314.64868,451.70839 314.64872,449.64479 L 314.64872,449.64479 z M 365.64182,432.84137 C 365.64178,433.2148 365.62213,433.53911 365.58284,433.81418 C 365.54351,434.0894 365.47472,434.31046 365.3765,434.47751 C 365.27818,434.64457 365.16519,434.7674 365.03748,434.84599 C 364.90971,434.92466 364.77703,434.96395 364.63946,434.9639 L 350.66611,434.9639 L 350.66611,447.93499 L 363.87303,447.93499 C 364.01055,447.93504 364.14324,447.9694 364.271,448.03819 C 364.39871,448.10697 364.5117,448.22001 364.61002,448.37721 C 364.70824,448.53441 364.77703,448.74572 364.81637,449.011 C 364.85565,449.27633 364.8753,449.61535 364.87535,450.02803 C 364.8753,450.40147 364.85565,450.72085 364.81637,450.98613 C 364.77703,451.25151 364.70824,451.46769 364.61002,451.6347 C 364.5117,451.80179 364.39871,451.92951 364.271,452.01794 C 364.14324,452.10641 364.01055,452.15062 363.87303,452.15062 L 350.66611,452.15062 L 350.66611,468.04017 C 350.66607,468.17772 350.62678,468.31041 350.54819,468.43817 C 350.46957,468.56589 350.33196,468.66416 350.13546,468.73294 C 349.93892,468.80172 349.68344,468.8607 349.36899,468.90984 C 349.05453,468.95898 348.6418,468.98354 348.13084,468.98354 C 347.65913,468.98354 347.25625,468.95898 346.92215,468.90984 C 346.58805,468.8607 346.32272,468.80172 346.12622,468.73294 C 345.92969,468.66416 345.79212,468.56589 345.7135,468.43817 C 345.63487,468.31041 345.59558,468.17772 345.59558,468.04017 L 345.59558,432.72345 C 345.59558,431.95701 345.797,431.42144 346.19993,431.11679 C 346.60281,430.81223 347.03027,430.65989 347.48229,430.65985 L 364.63946,430.65985 C 364.77703,430.65989 364.90971,430.69923 365.03748,430.77776 C 365.16519,430.85643 365.27818,430.9842 365.3765,431.161 C 365.47472,431.33795 365.54351,431.56886 365.58284,431.85378 C 365.62213,432.13879 365.64178,432.46798 365.64182,432.84137 L 365.64182,432.84137 z M 413.63431,432.84137 C 413.63426,433.2148 413.61462,433.53911 413.57533,433.81418 C 413.53599,434.0894 413.47213,434.31046 413.38371,434.47751 C 413.29524,434.64457 413.18716,434.7674 413.05945,434.84599 C 412.93169,434.92466 412.78921,434.96395 412.63199,434.9639 L 401.90136,434.9639 L 401.90136,468.04017 C 401.90136,468.19742 401.86202,468.33498 401.78344,468.4529 C 401.70482,468.57081 401.56725,468.66416 401.37071,468.73294 C 401.17417,468.80172 400.91377,468.8607 400.58951,468.90984 C 400.2652,468.95898 399.8574,468.98354 399.3661,468.98354 C 398.89442,468.98354 398.49154,468.95898 398.15745,468.90984 C 397.82334,468.8607 397.55801,468.80172 397.36148,468.73294 C 397.16493,468.66416 397.02737,468.57081 396.94879,468.4529 C 396.87016,468.33498 396.83082,468.19742 396.83082,468.04017 L 396.83082,434.9639 L 386.10023,434.9639 C 385.94299,434.96395 385.8005,434.92466 385.67278,434.84599 C 385.54502,434.7674 385.44182,434.64457 385.36325,434.47751 C 385.28462,434.31046 385.22076,434.0894 385.17163,433.81418 C 385.12249,433.53911 385.09792,433.2148 385.09792,432.84137 C 385.09792,432.46798 385.12249,432.13879 385.17163,431.85378 C 385.22076,431.56886 385.28462,431.33795 385.36325,431.161 C 385.44182,430.9842 385.54502,430.85643 385.67278,430.77776 C 385.8005,430.69923 385.94299,430.65989 386.10023,430.65985 L 412.63199,430.65985 C 412.78921,430.65989 412.93169,430.69923 413.05945,430.77776 C 413.18716,430.85643 413.29524,430.9842 413.38371,431.161 C 413.47213,431.33795 413.53599,431.56886 413.57533,431.85378 C 413.61462,432.13879 413.63426,432.46798 413.63431,432.84137 L 413.63431,432.84137 z M 470.97824,467.68642 C 470.89957,467.96159 470.78166,468.18265 470.62449,468.3497 C 470.46719,468.51676 470.25101,468.64452 469.97594,468.73294 C 469.70076,468.82141 469.36174,468.88527 468.95886,468.92456 C 468.55593,468.96389 468.05969,468.98354 467.47016,468.98354 C 466.86089,468.98354 466.34496,468.96389 465.92248,468.92456 C 465.49991,468.88527 465.15104,468.82141 464.87591,468.73294 C 464.60074,468.64452 464.39441,468.51676 464.25684,468.3497 C 464.11923,468.18265 464.01117,467.96159 463.93258,467.68642 L 455.94355,438.88471 L 455.88462,438.88471 L 448.5147,467.68642 C 448.45572,467.96159 448.35745,468.18265 448.21989,468.3497 C 448.08228,468.51676 447.88574,468.64452 447.63031,468.73294 C 447.37479,468.82141 447.0456,468.88527 446.64272,468.92456 C 446.23979,468.96389 445.72391,468.98354 445.09505,468.98354 C 444.44648,468.98354 443.90599,468.96389 443.47367,468.92456 C 443.04125,468.88527 442.6875,468.82141 442.41237,468.73294 C 442.1372,468.64452 441.92594,468.51676 441.77858,468.3497 C 441.63113,468.18265 441.52798,467.96159 441.46904,467.68642 L 431.38697,432.45813 C 431.26905,432.00615 431.20514,431.6524 431.19535,431.39688 C 431.1855,431.1414 431.26412,430.94486 431.43118,430.80725 C 431.59823,430.66974 431.86843,430.58132 432.24187,430.54193 C 432.61526,430.50269 433.11641,430.48304 433.74533,430.483 C 434.35456,430.48304 434.83607,430.49777 435.18982,430.52721 C 435.54357,430.55675 435.81381,430.61076 436.0005,430.68934 C 436.18725,430.76801 436.31496,430.87609 436.38374,431.01364 C 436.45252,431.15125 436.50658,431.3281 436.54592,431.54424 L 445.12449,463.50028 L 445.15398,463.50028 L 453.29041,431.60322 C 453.34936,431.38708 453.423,431.20526 453.51149,431.05786 C 453.59991,430.91049 453.74239,430.79745 453.93893,430.71883 C 454.13548,430.64025 454.41552,430.58132 454.77912,430.54193 C 455.14266,430.50269 455.61925,430.48304 456.20888,430.483 C 456.75916,430.48304 457.19642,430.50269 457.52072,430.54193 C 457.84498,430.58132 458.10538,430.64025 458.30196,430.71883 C 458.49846,430.79745 458.64095,430.91049 458.72942,431.05786 C 458.8178,431.20526 458.8915,431.38708 458.95053,431.60322 L 467.70599,463.50028 L 467.76492,463.50028 L 476.16668,431.57373 C 476.22558,431.37724 476.28456,431.20526 476.34354,431.05786 C 476.40247,430.91049 476.52531,430.79745 476.71205,430.71883 C 476.89871,430.64025 477.16403,430.58132 477.50797,430.54193 C 477.85188,430.50269 478.30882,430.48304 478.8788,430.483 C 479.46834,430.48304 479.93513,430.50761 480.27908,430.5567 C 480.62297,430.60583 480.87354,430.69923 481.03083,430.83675 C 481.18799,430.97435 481.26169,431.17089 481.25194,431.42633 C 481.24205,431.68185 481.18799,432.03564 481.08981,432.48762 L 470.97824,467.68642 z M 527.34528,467.00836 C 527.50248,467.44074 527.58598,467.78961 527.59583,468.05493 C 527.60563,468.32021 527.53192,468.52167 527.37477,468.65923 C 527.21752,468.79685 526.95706,468.88527 526.59352,468.92456 C 526.22993,468.96389 525.74349,468.98354 525.13431,468.98354 C 524.525,468.98354 524.03861,468.96877 523.67506,468.93933 C 523.31142,468.90984 523.0363,468.8607 522.8496,468.79192 C 522.66287,468.72314 522.5253,468.62979 522.43688,468.51183 C 522.34845,468.39392 522.2649,468.24655 522.18632,468.06966 L 518.91406,458.78354 L 503.05396,458.78354 L 499.92912,467.95174 C 499.87014,468.12864 499.79156,468.28092 499.69329,468.40868 C 499.59501,468.5364 499.45254,468.64452 499.26584,468.73294 C 499.0791,468.82141 498.81377,468.88527 498.46987,468.92456 C 498.12592,468.96389 497.67883,468.98354 497.12853,468.98354 C 496.5586,468.98354 496.09186,468.95898 495.72826,468.90984 C 495.36467,468.8607 495.1092,468.76736 494.96178,468.62979 C 494.81438,468.49218 494.7456,468.29077 494.75545,468.02544 C 494.76524,467.76012 494.84879,467.41129 495.006,466.97892 L 507.80019,431.54424 C 507.87881,431.3281 507.98196,431.15125 508.10973,431.01364 C 508.23749,430.87609 508.42418,430.76801 508.66986,430.68934 C 508.9155,430.61076 509.22995,430.55675 509.61319,430.52721 C 509.99643,430.49777 510.48286,430.48304 511.07245,430.483 C 511.70136,430.48304 512.22215,430.49777 512.63488,430.52721 C 513.04757,430.55675 513.38167,430.61076 513.6372,430.68934 C 513.89268,430.76801 514.08922,430.881 514.22678,431.02837 C 514.36434,431.17582 514.47241,431.35759 514.55108,431.57373 L 527.34528,467.00836 z M 510.92503,435.73038 L 510.89559,435.73038 L 504.32159,454.74482 L 517.5875,454.74482 L 510.92503,435.73038 z M 572.02566,468.04017 C 572.02561,468.19742 571.99612,468.33498 571.93719,468.4529 C 571.87821,468.57081 571.75049,468.66908 571.55395,468.74771 C 571.35741,468.82629 571.08224,468.88527 570.72854,468.92456 C 570.37475,468.96389 569.90308,468.98354 569.3135,468.98354 C 568.8025,468.98354 568.38489,468.96389 568.06063,468.92456 C 567.73634,468.88527 567.47593,468.82141 567.27939,468.73294 C 567.08284,468.64452 566.93052,468.52167 566.82249,468.36447 C 566.71433,468.20721 566.62098,468.01068 566.5424,467.77484 L 563.03432,458.78354 C 562.62159,457.76159 562.19413,456.82314 561.75196,455.96824 C 561.30974,455.11334 560.78402,454.37635 560.1748,453.75723 C 559.56552,453.1382 558.84818,452.65669 558.02277,452.31274 C 557.19731,451.96885 556.20485,451.79687 555.04533,451.79683 L 551.65516,451.79683 L 551.65516,468.04017 C 551.65511,468.19742 551.61091,468.33498 551.52247,468.4529 C 551.43405,468.57081 551.29645,468.66416 551.10975,468.73294 C 550.92305,468.80172 550.66757,468.8607 550.34331,468.90984 C 550.01902,468.95898 549.61121,468.98354 549.1199,468.98354 C 548.62855,468.98354 548.22074,468.95898 547.89648,468.90984 C 547.57217,468.8607 547.31177,468.80172 547.11528,468.73294 C 546.91873,468.66416 546.78118,468.57081 546.70255,468.4529 C 546.62392,468.33498 546.58463,468.19742 546.58463,468.04017 L 546.58463,432.72345 C 546.58463,431.95701 546.78605,431.42144 547.18898,431.11679 C 547.59186,430.81223 548.01932,430.65989 548.47134,430.65985 L 556.57824,430.65985 C 557.54126,430.65989 558.34211,430.68447 558.98086,430.73355 C 559.61958,430.78274 560.19444,430.83679 560.70544,430.89573 C 562.17937,431.15125 563.48142,431.55413 564.61149,432.10438 C 565.74152,432.65471 566.6898,433.35237 567.45628,434.19742 C 568.22271,435.04257 568.79757,436.01047 569.18086,437.10121 C 569.56405,438.19199 569.75567,439.39571 569.75572,440.71244 C 569.75567,441.98996 569.58369,443.13475 569.23979,444.14687 C 568.89585,445.15902 568.39962,446.05321 567.7511,446.82949 C 567.10249,447.60582 566.32621,448.27894 565.42217,448.84887 C 564.51809,449.41881 563.50598,449.90032 562.38575,450.29336 C 563.01463,450.56853 563.5846,450.9174 564.09561,451.33988 C 564.60656,451.76246 565.08315,452.26854 565.52537,452.85811 C 565.96754,453.44774 566.38515,454.12575 566.77824,454.89223 C 567.17128,455.6587 567.56436,456.52345 567.95745,457.48642 L 571.3771,465.88814 C 571.65222,466.59568 571.82907,467.09192 571.90775,467.37689 C 571.98633,467.66185 572.02561,467.88296 572.02566,468.04017 L 572.02566,468.04017 z M 564.39038,441.24308 C 564.39038,439.74946 564.05628,438.48675 563.38807,437.45495 C 562.71986,436.4232 561.59963,435.68129 560.02738,435.22923 C 559.53603,435.09171 558.98082,434.99344 558.3618,434.93441 C 557.74268,434.87552 556.93199,434.84603 555.92972,434.84599 L 551.65516,434.84599 L 551.65516,447.69916 L 556.60773,447.69916 C 557.94414,447.69916 559.09879,447.53703 560.0716,447.21273 C 561.04442,446.88847 561.85511,446.43645 562.50367,445.85667 C 563.15223,445.27694 563.62882,444.59395 563.93343,443.80783 C 564.23805,443.02171 564.39038,442.16681 564.39038,441.24308 L 564.39038,441.24308 z M 620.52971,466.71359 C 620.52966,467.06734 620.51001,467.37689 620.47073,467.6422 C 620.43139,467.90753 620.3626,468.12864 620.26438,468.30549 C 620.16611,468.48239 620.05307,468.6101 619.92536,468.68873 C 619.79759,468.76736 619.65511,468.80665 619.4979,468.80665 L 601.19101,468.80665 C 600.73894,468.80665 600.31149,468.65431 599.9086,468.3497 C 599.50572,468.04508 599.3043,467.50952 599.3043,466.74309 L 599.3043,432.72345 C 599.3043,431.95701 599.50572,431.42144 599.9086,431.11679 C 600.31149,430.81223 600.73894,430.65989 601.19101,430.65985 L 619.29157,430.65985 C 619.44877,430.65989 619.59125,430.69923 619.71901,430.77776 C 619.84673,430.85643 619.94992,430.9842 620.02854,431.161 C 620.10713,431.33795 620.17098,431.55906 620.22016,431.82433 C 620.26926,432.08965 620.29382,432.41888 620.29387,432.81188 C 620.29382,433.16566 620.26926,433.47521 620.22016,433.74048 C 620.17098,434.00585 620.10713,434.22204 620.02854,434.38904 C 619.94992,434.55614 619.84673,434.67898 619.71901,434.75755 C 619.59125,434.83619 619.44877,434.87552 619.29157,434.87548 L 604.37479,434.87548 L 604.37479,446.84426 L 617.16902,446.84426 C 617.32624,446.84426 617.46871,446.88847 617.59648,446.97689 C 617.72419,447.06536 617.83226,447.18821 617.92074,447.34541 C 618.00916,447.50267 618.07302,447.71885 618.11236,447.99397 C 618.15165,448.26914 618.17129,448.5934 618.17134,448.96679 C 618.17129,449.32054 618.15165,449.6252 618.11236,449.88068 C 618.07302,450.13615 618.00916,450.34254 617.92074,450.49974 C 617.83226,450.65695 617.72419,450.76999 617.59648,450.83873 C 617.46871,450.90755 617.32624,450.94196 617.16902,450.94192 L 604.37479,450.94192 L 604.37479,464.59106 L 619.4979,464.59106 C 619.65511,464.59106 619.79759,464.63035 619.92536,464.70898 C 620.05307,464.78756 620.16611,464.91039 620.26438,465.07745 C 620.3626,465.2445 620.43139,465.46069 620.47073,465.72602 C 620.51001,465.99133 620.52966,466.32052 620.52971,466.71359 L 620.52971,466.71359 z"
       id="text3809"
       sodipodi:nodetypes="csssssssccccsssssssccsssssssccccccccsssssssccssscccsssssssccsccssssssssscsssccscccsssccccssscccsssssssssssssssssccscccssssssssssssssssssscccsssssssccsssssssccsssssssccssssssscccssssssssssssssssssssssssssssssssssssssssssssssssssssssssssssscccssssssssssssssssssssssssssssssssssssssssssssssssssssssssssssscccssssssssssssssscccssssssssssssssscccsssccccssssssscccsssssssccsccssscccssscccssssssscccsssssssccssscccsssssssccccsssssssccsssssssccccsssssssccccssssssscccsssssssccccsssssssccsssssssccccccccsssssssccssscccsssssssccsccssssssssscsssccscccsssccccssscccsssccsccsccsssssssccccsssssssccccssscc" />
  </g>
</svg>
