<?xml version="1.0" encoding="utf-8"?>
<!-- Generator: Adobe Illustrator 26.4.1, SVG Export Plug-In . SVG Version: 6.00 Build 0)  -->
<svg version="1.0" id="katman_1" xmlns="http://www.w3.org/2000/svg" xmlns:xlink="http://www.w3.org/1999/xlink" x="0px" y="0px"
	 viewBox="0 0 1190.55 841.89" style="enable-background:new 0 0 1190.55 841.89;" xml:space="preserve">
<style type="text/css">
	.st0{fill:#CC1517;}
</style>
<path class="st0" d="M1024.96,344.76c2.16,0,5.05,0,7.21,2.16c2.16,1.44,3.61,9.38-2.16,11.54l4.33,7.21h-5.77l-3.61-6.49h-2.89
	v7.21h-5.77v-21.64H1024.96L1024.96,344.76z M1022.07,349.09v5.77h5.05c1.44-0.72,1.44-1.44,1.44-2.89c0-2.89-2.89-2.89-4.33-2.89
	H1022.07L1022.07,349.09z M739.33,455.84c11.54,33.18,39.67,56.26,72.13,56.26c5.77,0,11.54,0,17.31-2.16L739.33,455.84z
	 M734.28,445.74V434.2l2.89,12.98l98.82,59.87c18.75-7.21,33.9-21.64,43.28-41.11v41.83h90.88c0,0,44-5.77,44-49.77
	c0.11-11.5-3.7-22.7-10.82-31.74h-81.51l39.67,18.03c0,0,7.21,5.05,5.05,10.82s-5.77,7.93-12.98,8.66h-73.57
	c5.05-11.54,7.93-24.52,9.38-37.51h-43.28c-2.16,25.97-16.59,46.88-34.62,46.88c-18.03,0-33.18-20.92-34.62-46.88h-73.57
	l31.02,18.75V445.74z M675.13,426.99h-39.67l10.82,16.59L675.13,426.99L675.13,426.99z M229.38,521.48h75.73v-41.11
	c14.43,19.47,35.34,31.74,58.42,31.74c36.79,0,67.08-28.85,75.73-67.8c3.59,35.92,33.17,63.65,69.24,64.92h25.24l46.88-28.85v-53.38
	h-41.11v43.28h-27.41c0,0-28.85,0.72-31.74-43.28h-82.23c-1.44,25.97-15.87,46.16-34.62,46.16c-17.31,0-32.46-20.2-33.9-46.16
	h-43.28c0.72,19.47,7.21,38.23,18.03,52.65h-75.01c0,0-25.24-7.93-26.69-52.65h-47.6C157.97,518.59,229.38,521.48,229.38,521.48z
	 M545.3,508.5h35.34v-20.92l-35.34,21.64V508.5z M202.69,421.22c0-49.05,26.69-57.7,26.69-57.7h75.01
	c-11.54,16.59-18.03,36.06-18.03,57.7h43.28c0-28.85,15.87-50.49,33.9-50.49c19.47,0,34.62,21.64,34.62,50.49h82.23
	c0-48.33,23.8-50.49,23.8-50.49h68.52l-26.69-35.34h-36.79c0,0-59.15,0-69.96,64.92c-8.66-39.67-38.95-67.8-75.73-67.8
	c-23.08,0-44.72,12.26-58.42,31.02l-31.74-43.28h-44c0,0-72.85,5.77-74.29,100.98H202.69z M911.71,421.22h86.55
	c-14.43-14.43-33.9-20.92-33.9-20.92l-23.08-10.1c0,0-5.05-2.89-3.61-11.54c1.44-7.21,12.26-6.49,12.26-6.49h54.82l-29.57-38.23
	c0,0-44.72,0-57.7,5.77c-19.59,8.61-30.86,29.38-27.41,50.49C892.24,403.91,901.62,414.01,911.71,421.22z M828.77,335.39
	c-5.77-2.16-11.54-2.89-17.31-2.89c-32.46,0-59.87,22.36-72.13,54.82C739.33,387.32,828.77,335.39,828.77,335.39z M585.69,486.14
	v21.64h38.95v-46.16L585.69,486.14z M624.64,455.12v-28.85h-38.95v52.65l38.95-23.08V455.12z M683.07,415.45l-57.7-79.34h-40.39
	v84.39h38.95v-9.38l6.49,9.38h49.05c0-2.16,1.44-3.61,2.89-5.05H683.07z M693.89,336.11v75.01l3.61,1.44l36.79-21.64v-56.26h-40.39
	V336.11z M836.7,337.55l-99.54,58.42l-2.89,14.43v-12.26l-33.18,19.47l1.44,2.89h74.29c0.72-27.41,15.87-49.05,34.62-49.05
	c18.75,0,33.9,21.64,34.62,49.05h43.28C887.91,381.55,866.27,349.09,836.7,337.55L836.7,337.55z M688.12,434.2
	c-2.89,0-5.05-2.16-6.49-4.33l-31.74,18.75l38.23,58.42v-71.41V434.2z M699.66,431.32l-5.77,3.61v72.85h40.39v-55.54l-34.62-21.64
	V431.32z"/>
</svg>
